# xmcd CD database file
#
# Track frame offsets:
#	150
#	22682
#	46977
#	70089
#	100052
#	123705
#	143546
#	160431
#	168437
#	189333
#	202404
#	221986
#	233172
#
# Disc length: 3391 seconds
#
# Revision: 0
# Processed by: cddbd v1.5.2PL0 Copyright (c) Steve Scherf et al.
# Submitted via: CDex 1.70beta2
#
DISCID=b90d3d0d
DTITLE=Paolo Fresu, A Filetta and Daniele di Bonaventura - Mistico Mediterraneo
DYEAR=2011
DGENRE=Jazz
TTITLE0=Rex tremendae
TTITLE1=Liberata
TTITLE2=Da tè à mè
TTITLE3=Le lac
TTITLE4=Dies irae
TTITLE5=Gloria
TTITLE6=Corale
TTITLE7=La folie du Cardinal
TTITLE8=U sipolcru
TTITLE9=Scherzi veranili
TTITLE10=Figliolu d'ella
TTITLE11=Gradualis
TTITLE12=Sanctus
EXTD=YEAR: 2011
EXTT0=
EXTT1=
EXTT2=
EXTT3=
EXTT4=
EXTT5=
EXTT6=
EXTT7=
EXTT8=
EXTT9=
EXTT10=
EXTT11=
EXTT12=
PLAYORDER=
